<?xml version="1.0" encoding="UTF-8"?>
<svg version="1.1" xmlns="http://www.w3.org/2000/svg" width="508" height="522">
<path d="M0 0 C8.97543622 6.45390899 13.64012654 15.02541653 15.9296875 25.671875 C17.48998226 35.6364847 14.80365522 45.05704402 9.4609375 53.4921875 C8.19582053 54.56816397 8.19582053 54.56816397 6.90514565 55.66587734 C2.53788728 60.93460507 3.78545554 68.62199991 3.84188843 75.09986877 C3.83772494 76.72253708 3.8313596 78.34520098 3.82298243 79.96785301 C3.80628853 84.42565811 3.82067009 88.88290662 3.84004354 93.34068096 C3.85546801 98.14851043 3.84202426 102.95626761 3.83195496 107.76409912 C3.81833471 116.09470287 3.82264707 124.42514222 3.83878708 132.75573921 C3.86184518 144.80582641 3.85455075 156.85574869 3.83925588 168.90584134 C3.81497897 188.4632019 3.81078108 208.02050973 3.82128906 227.57788086 C3.82191289 228.7484879 3.82253671 229.91909495 3.82317944 231.12517493 C3.82445076 233.49444058 3.825725 235.86370623 3.82700215 238.23297187 C3.82763453 239.40764999 3.82826691 240.58232811 3.82891846 241.79260254 C3.8295566 242.96833494 3.83019475 244.14406733 3.83085223 245.35542798 C3.83765893 258.41590677 3.8396492 271.47638481 3.83984375 284.53686523 C3.83986658 285.70635114 3.83988941 286.87583704 3.83991294 288.08076192 C3.83984375 307.56578973 3.82782629 327.0507975 3.80888426 346.53581566 C3.79790867 358.55899186 3.79876969 370.58206326 3.814824 382.60523438 C3.82527381 390.83899864 3.82553094 399.07272067 3.81770585 407.30648775 C3.8136099 412.0604995 3.81459032 416.8143771 3.82863808 421.56837273 C3.84143414 425.9175811 3.84058399 430.26656214 3.82876559 434.61577129 C3.82695902 436.19171631 3.83027627 437.76767698 3.83914797 439.34359808 C3.85047527 441.48137338 3.84342751 443.61832638 3.8317318 445.75608158 C3.83254356 446.94477126 3.83335532 448.13346094 3.83419168 449.35817152 C3.41199721 452.90311299 2.70694213 454.7256815 0.4609375 457.4921875 C-3.28203748 459.6088432 -6.59203261 459.74120506 -10.83902454 459.73828316 C-12.11693578 459.74226525 -13.39484701 459.74624735 -14.71148282 459.75035012 C-16.12738353 459.74464435 -17.54328349 459.73875317 -18.95918274 459.73269653 C-20.46492609 459.73356866 -21.97066914 459.73531978 -23.47641057 459.73787487 C-27.6153255 459.74235093 -31.7541371 459.73434115 -35.89303887 459.72431874 C-40.35584201 459.71569029 -44.81863923 459.71860398 -49.28144836 459.72012329 C-57.01398921 459.72117252 -64.74649634 459.7148919 -72.4790287 459.70364761 C-83.65899936 459.68740079 -94.83895369 459.68218544 -106.01893487 459.67967163 C-124.15724512 459.67529324 -142.2955374 459.66198024 -160.43383789 459.64306641 C-178.0546052 459.62471133 -195.67536764 459.610553 -213.29614258 459.60205078 C-214.38209535 459.60152533 -215.46804812 459.60099989 -216.58690856 459.60045852 C-222.03475729 459.59784846 -227.48260606 459.59532104 -232.93045485 459.59283471 C-278.13333652 459.57209774 -323.33619858 459.53686829 -368.5390625 459.4921875 C-368.52891113 460.16693115 -368.51875977 460.8416748 -368.50830078 461.53686523 C-368.50040527 462.42833252 -368.49250977 463.3197998 -368.484375 464.23828125 C-368.47422363 465.1192749 -368.46407227 466.00026855 -368.45361328 466.90795898 C-368.57086669 470.45403723 -369.27128038 473.18186752 -370.5390625 476.4921875 C-373.82233957 478.13382603 -377.4632915 477.6394004 -381.07202148 477.63745117 C-382.39659363 477.64248909 -382.39659363 477.64248909 -383.7479248 477.64762878 C-386.67701613 477.65715454 -389.60605039 477.65908268 -392.53515625 477.66015625 C-394.56535364 477.66336758 -396.59555079 477.66673156 -398.62574768 477.67024231 C-402.88535092 477.67623756 -407.14493385 477.67808179 -411.40454102 477.67749023 C-416.87025176 477.67738856 -422.33583275 477.69104429 -427.80151272 477.70826244 C-431.99559633 477.71936526 -436.18964839 477.72140998 -440.38374519 477.72088051 C-442.39922597 477.72206309 -444.4147075 477.72650034 -446.43017387 477.73421288 C-449.24577882 477.74397859 -452.06109975 477.74114833 -454.87670898 477.73510742 C-455.71369827 477.74072693 -456.55068756 477.74634644 -457.41304016 477.75213623 C-461.30950882 477.73082546 -463.22179109 477.70370177 -466.5390625 475.4921875 C-467.81444835 471.66602994 -467.71104983 468.04946363 -467.73193359 464.06103516 C-467.74011108 463.20056076 -467.74828857 462.34008636 -467.75671387 461.45353699 C-467.78153831 458.60444839 -467.79807443 455.75540944 -467.8125 452.90625 C-467.81782368 451.93334393 -467.82314735 450.96043785 -467.82863235 449.95804977 C-467.85534837 444.81058286 -467.87473009 439.66314011 -467.88916016 434.515625 C-467.90582384 429.19676116 -467.95062048 423.87851501 -468.0015316 418.55988503 C-468.03516338 414.47123491 -468.04673297 410.38273237 -468.05238724 406.29395676 C-468.05910864 404.33311607 -468.07435371 402.37228539 -468.09827805 400.41157913 C-468.12985169 397.66791377 -468.12997855 394.92592778 -468.12255859 392.18212891 C-468.13896393 391.37260269 -468.15536926 390.56307648 -468.17227173 389.72901917 C-468.13049902 385.95574473 -467.71340358 383.81150806 -465.87759399 380.44906616 C-461.92549568 378.1325456 -459.85858581 378.2883348 -455.33040428 378.36988258 C-453.42652933 378.39636924 -453.42652933 378.39636924 -451.48419225 378.42339098 C-450.51229943 378.44609383 -449.54040662 378.46879668 -448.5390625 378.4921875 C-448.5409611 377.71752524 -448.5428597 376.94286297 -448.54481584 376.1447261 C-448.65664239 330.25872242 -448.74246296 284.37273353 -448.79438915 238.48662095 C-448.80064288 232.98025684 -448.80711447 227.473893 -448.8137207 221.9675293 C-448.81503226 220.87128523 -448.81634381 219.77504116 -448.8176951 218.64557757 C-448.83946725 200.8821311 -448.87889874 183.11876531 -448.92482648 165.35536674 C-448.97154078 147.1361577 -448.99934725 128.916991 -449.00950497 110.69772452 C-449.01637457 99.45029795 -449.03809182 88.20309943 -449.07864483 76.95574304 C-449.10502115 69.24893021 -449.1130751 61.54223573 -449.10656939 53.83538101 C-449.10335852 49.38509445 -449.10837078 44.93520712 -449.13508987 40.48499107 C-449.15936041 36.41296936 -449.16069096 32.34161662 -449.14355697 28.26956459 C-449.14143832 26.79437102 -449.14783393 25.31913629 -449.16347841 23.84402416 C-449.18347671 21.84244756 -449.16976825 19.84061841 -449.15430164 17.83900166 C-449.15620025 16.72604137 -449.15809885 15.61308108 -449.16005498 14.46639472 C-448.31755226 10.43127714 -446.78636578 8.971641 -443.5390625 6.4921875 C-439.30578668 5.3109727 -435.12685839 5.37236438 -430.74796486 5.38589954 C-429.75600937 5.38686515 -429.75600937 5.38686515 -428.74401438 5.38785025 C-426.53044525 5.39121573 -424.31696992 5.40179401 -422.10342407 5.41230774 C-420.49940096 5.41616887 -418.89537667 5.41956869 -417.29135168 5.42254704 C-413.80503925 5.42999203 -410.31875617 5.44064309 -406.8324604 5.45373154 C-401.15990772 5.47499455 -395.48734963 5.48928242 -389.81477356 5.50263977 C-382.64668207 5.52000076 -375.4785992 5.53915818 -368.31051813 5.56039198 C-354.22683144 5.60198096 -340.14314606 5.62996957 -326.05941772 5.65287781 C-323.842169 5.65654737 -321.62492028 5.66022152 -319.40767157 5.6639002 C-316.0474699 5.66945334 -312.6872682 5.67498776 -309.32706643 5.68048183 C-296.66042482 5.70119377 -283.99378528 5.72287923 -271.32714844 5.74633789 C-270.16929078 5.74847725 -269.01143313 5.75061662 -267.81848888 5.75282081 C-249.04866446 5.78807764 -230.2789298 5.84161276 -211.5091681 5.90096877 C-192.23998134 5.96138894 -172.97084212 5.99893746 -153.70156801 6.01604813 C-141.81494599 6.02739271 -129.92865633 6.0571123 -118.04214679 6.11033281 C-109.89805348 6.1451598 -101.75411145 6.15807287 -93.60994555 6.15368257 C-88.91007356 6.15182198 -84.21075184 6.15978669 -79.51099205 6.1939621 C-75.20768457 6.22505044 -70.90527548 6.22840557 -66.6019042 6.20979359 C-65.04607378 6.20795266 -63.49019091 6.21626312 -61.93448217 6.23580781 C-51.07021962 6.40003336 -51.07021962 6.40003336 -41.99229658 0.91879433 C-41.27294571 0.21262395 -41.27294571 0.21262395 -40.5390625 -0.5078125 C-37.9296875 -1.93359375 -37.9296875 -1.93359375 -35.7890625 -2.8203125 C-35.07234375 -3.12582031 -34.355625 -3.43132813 -33.6171875 -3.74609375 C-22.46326198 -7.83446871 -10.09735798 -5.9962772 0 0 Z " fill="#F1F5F8" transform="translate(490.5390625,24.5078125)"/>
<path d="M0 0 C1.31059891 0.00871628 1.31059891 0.00871628 2.64767456 0.01760864 C5.52884898 0.04312967 8.40799222 0.10484213 11.28857422 0.16772461 C13.29203867 0.19442447 15.29553001 0.21917226 17.29904175 0.24205017 C21.49403714 0.29514274 25.68830088 0.36490866 29.8828125 0.44775391 C35.26414106 0.55368958 40.64532766 0.62892175 46.02729988 0.6930933 C50.1623232 0.74392774 54.29712589 0.80551285 58.43194199 0.87093925 C60.4166845 0.90208222 62.4014609 0.93113754 64.3862648 0.95808601 C67.15624367 0.99839033 69.92564477 1.0518412 72.6953125 1.109375 C73.92970062 1.12439812 73.92970062 1.12439812 75.18902588 1.13972473 C79.03152558 1.23341796 80.94862121 1.32780802 84.21826172 3.50756836 C84.50492259 6.02144953 84.59688795 8.28831749 84.55883789 10.80297852 C84.55949501 11.92995399 84.55949501 11.92995399 84.56016541 13.07969666 C84.55807141 15.56893694 84.53471234 18.05750791 84.51123047 20.54663086 C84.50563667 22.27012768 84.50136555 23.99362927 84.49836731 25.71713257 C84.48690148 30.25794599 84.45741952 34.79847248 84.42425537 39.33917236 C84.39359182 43.9707857 84.37986994 48.60244532 84.36474609 53.23413086 C84.33255135 62.3254029 84.28133415 71.41646179 84.21826172 80.50756836 C84.87826172 80.83756836 85.53826172 81.16756836 86.21826172 81.50756836 C85.96388461 84.13513424 85.69061971 86.7582861 85.40576172 89.38256836 C85.30038086 90.50211914 85.30038086 90.50211914 85.19287109 91.64428711 C84.97115949 93.61308613 84.60246833 95.56393493 84.21826172 97.50756836 C80.32880967 100.10053639 77.08223935 99.78821526 72.57177734 99.76635742 C71.68858322 99.76986206 70.8053891 99.7733667 69.89543152 99.77697754 C66.97171198 99.78579066 64.04823378 99.77994716 61.12451172 99.77319336 C59.09574334 99.77454013 57.06697528 99.77648076 55.03820801 99.7789917 C50.78455536 99.78194239 46.53098665 99.77764704 42.27734375 99.76831055 C36.81949431 99.75691608 31.36184155 99.76347583 25.90399933 99.77545547 C21.71419792 99.78267552 17.5244433 99.78038547 13.3346405 99.77519989 C11.32195513 99.7738638 9.30926553 99.7755097 7.29658508 99.780159 C4.48585728 99.78522656 1.67544997 99.77751069 -1.13525391 99.76635742 C-1.97067215 99.77040588 -2.80609039 99.77445435 -3.66682434 99.77862549 C-7.55753863 99.74996065 -9.46959778 99.71566203 -12.78173828 97.50756836 C-14.05712414 93.6814108 -13.95372561 90.06484448 -13.97460938 86.07641602 C-13.98278687 85.21594162 -13.99096436 84.35546722 -13.99938965 83.46891785 C-14.02421409 80.61982925 -14.04075021 77.7707903 -14.05517578 74.92163086 C-14.06049946 73.94872478 -14.06582314 72.97581871 -14.07130814 71.97343063 C-14.09802415 66.82596372 -14.11740587 61.67852096 -14.13183594 56.53100586 C-14.14849962 51.21214202 -14.19329626 45.89389587 -14.24420738 40.57526588 C-14.27783916 36.48661577 -14.28940875 32.39811323 -14.29506302 28.30933762 C-14.30178442 26.34849693 -14.31702949 24.38766625 -14.34095383 22.42695999 C-14.37252747 19.68329463 -14.37265433 16.94130864 -14.36523438 14.19750977 C-14.38163971 13.38798355 -14.39804504 12.57845734 -14.41494751 11.74440002 C-14.37083755 7.76000546 -14.04244284 5.90255798 -11.79412842 2.49617004 C-7.71851847 -0.19430644 -4.77920354 -0.14115084 0 0 Z " fill="#BCD8E8" transform="translate(36.78173828125,402.492431640625)"/>
<path d="M0 0 C2.31 0 4.62 0 7 0 C7 2.64 7 5.28 7 8 C15.91 8 24.82 8 34 8 C34 10.31 34 12.62 34 15 C30.37 15 26.74 15 23 15 C22.62875 16.258125 22.2575 17.51625 21.875 18.8125 C19.20915615 26.82266587 14.8378082 34.11542679 10 41 C10.58910156 41.51949219 11.17820312 42.03898437 11.78515625 42.57421875 C12.53667969 43.27160156 13.28820312 43.96898437 14.0625 44.6875 C14.81660156 45.37199219 15.57070313 46.05648437 16.34765625 46.76171875 C18 49 18 49 17.80859375 51.58203125 C17.54175781 52.37996094 17.27492188 53.17789063 17 54 C16.67 54.99 16.34 55.98 16 57 C13.50638429 55.79618552 11.31856917 54.54571278 9 53 C6.34122978 57.78578639 4.71580276 62.7331752 3.03125 67.93359375 C2.13067994 70.61142517 1.14268246 73.2035109 0.0625 75.8125 C-2.18400934 81.26957191 -3.96152676 86.86629373 -5.75390625 92.484375 C-6.93751467 95.82370909 -8.34477597 98.87186648 -10 102 C-8.96359375 101.95359375 -7.9271875 101.9071875 -6.859375 101.859375 C-5.48961221 101.82184725 -4.11981818 101.78544816 -2.75 101.75 C-2.06808594 101.71648437 -1.38617188 101.68296875 -0.68359375 101.6484375 C2.4496438 101.58759794 4.55096529 101.70390463 7.19628906 103.44824219 C9.88453736 107.25137852 9.57394183 110.66516759 9.53125 115.21875 C9.5350769 116.11364136 9.53890381 117.00853271 9.54284668 117.93054199 C9.5455652 119.82007982 9.53820816 121.70965532 9.52148438 123.59912109 C9.50007323 126.4901119 9.52128734 129.37861767 9.546875 132.26953125 C9.54423171 134.10677631 9.53910671 135.94401983 9.53125 137.78125 C9.53934692 138.64488159 9.54744385 139.50851318 9.55578613 140.39831543 C9.49925564 144.01933702 9.36302365 146.3664118 7.54296875 149.54296875 C3.68814184 151.75164838 0.15350591 151.57224181 -4.21875 151.53125 C-5.11364136 151.5350769 -6.00853271 151.53890381 -6.93054199 151.54284668 C-8.82007982 151.5455652 -10.70965532 151.53820816 -12.59912109 151.52148438 C-15.4901119 151.50007323 -18.37861767 151.52128734 -21.26953125 151.546875 C-23.10677631 151.54423171 -24.94401983 151.53910671 -26.78125 151.53125 C-28.07669739 151.54339539 -28.07669739 151.54339539 -29.39831543 151.55578613 C-33.00987212 151.49940341 -35.3687884 151.35741411 -38.54516602 149.55883789 C-40.77905304 145.62976088 -40.5523033 141.97369274 -40.49609375 137.52734375 C-40.4982766 136.14815514 -40.4982766 136.14815514 -40.50050354 134.74110413 C-40.49884561 132.80027085 -40.48729623 130.8594243 -40.46655273 128.91870117 C-40.43756903 125.94458356 -40.44595151 122.97224528 -40.45898438 119.99804688 C-40.45274774 118.11197049 -40.44435739 116.22589973 -40.43359375 114.33984375 C-40.43652939 113.44917709 -40.43946503 112.55851044 -40.44248962 111.64085388 C-40.42980545 110.81311966 -40.41712128 109.98538544 -40.40405273 109.13256836 C-40.39864975 108.40516953 -40.39324677 107.67777069 -40.38768005 106.92832947 C-39.88616432 104.43377874 -38.99964677 103.53312132 -37 102 C-34.30078125 101.70703125 -34.30078125 101.70703125 -31.3125 101.8125 C-30.31863281 101.83957031 -29.32476562 101.86664063 -28.30078125 101.89453125 C-27.16189453 101.94673828 -27.16189453 101.94673828 -26 102 C-25.61199219 100.82566406 -25.22398437 99.65132813 -24.82421875 98.44140625 C-22.53997125 91.58866376 -20.1713332 84.76482118 -17.8125 77.9375 C-17.34435764 76.58139519 -16.87625835 75.22527551 -16.40820312 73.86914062 C-15.27263162 70.57925561 -14.13647866 67.28957176 -13 64 C-14.485 64.495 -14.485 64.495 -16 65 C-17.65 63.02 -19.3 61.04 -21 59 C-12.09 50.09 -12.09 50.09 -3 41 C-5.00991787 36.98016426 -7.28507986 33.24691347 -9.66015625 29.4375 C-10.86948024 27.23744703 -11.54059833 25.45014222 -12 23 C-6.91552975 22.21103048 -6.91552975 22.21103048 -4 23 C-1.16267597 25.93823305 2 29.76923163 2 34 C9.12193647 30.33529701 9.12193647 30.33529701 15 15 C1.14 15 -12.72 15 -27 15 C-27 12.69 -27 10.38 -27 8 C-18.09 8 -9.18 8 0 8 C0 5.36 0 2.72 0 0 Z " fill="#C0DCEC" transform="translate(253,186)"/>
<path d="M0 0 C1.23556641 0.01740234 1.23556641 0.01740234 2.49609375 0.03515625 C3.32238281 0.04417969 4.14867187 0.05320313 5 0.0625 C5.63808594 0.07410156 6.27617187 0.08570313 6.93359375 0.09765625 C9.05645344 5.7008635 11.17422968 11.30595562 13.28735352 16.9128418 C14.00666742 18.81929102 14.7273586 20.72522118 15.44946289 22.63061523 C16.48818168 25.37217516 17.52190524 28.11557408 18.5546875 30.859375 C18.8776329 31.70851974 19.20057831 32.55766449 19.53330994 33.43254089 C20.98328467 37.29828904 22.3170047 40.99314337 22.93359375 45.09765625 C20.29359375 45.09765625 17.65359375 45.09765625 14.93359375 45.09765625 C14.93359375 44.10765625 14.93359375 43.11765625 14.93359375 42.09765625 C13.94359375 42.09765625 12.95359375 42.09765625 11.93359375 42.09765625 C12.12993408 42.65638428 12.32627441 43.2151123 12.52856445 43.79077148 C13.43514277 46.37197551 14.34062329 48.9535634 15.24609375 51.53515625 C15.70918945 52.85290039 15.70918945 52.85290039 16.18164062 54.19726562 C18.15064833 59.81411918 20.07008156 65.44491623 21.93359375 71.09765625 C22.94679688 71.04544922 22.94679688 71.04544922 23.98046875 70.9921875 C24.8725 70.96511719 25.76453125 70.93804687 26.68359375 70.91015625 C28.00617188 70.85794922 28.00617188 70.85794922 29.35546875 70.8046875 C32.6564517 71.1797992 33.68653723 71.61850939 35.93359375 74.09765625 C36.55609731 77.20224457 36.4935467 80.28015791 36.46484375 83.4375 C36.46867065 84.35600235 36.47249756 85.2745047 36.47644043 86.22084045 C36.47916243 88.16343277 36.47178109 90.10606157 36.45507812 92.04858398 C36.43369664 95.02085282 36.45485701 97.99069774 36.48046875 100.96289062 C36.47782504 102.85026575 36.47269918 104.73763937 36.46484375 106.625 C36.47294067 107.51364243 36.4810376 108.40228485 36.48937988 109.31785583 C36.43356416 112.99600944 36.31597777 115.42611354 34.4765625 118.65649414 C30.61903998 120.84264578 27.07974105 120.66982907 22.71484375 120.62890625 C21.37250671 120.63464661 21.37250671 120.63464661 20.00305176 120.64050293 C18.11351393 120.64322145 16.22393843 120.63586441 14.33447266 120.61914062 C11.44348185 120.59772948 8.55497608 120.61894359 5.6640625 120.64453125 C3.82681744 120.64188796 1.98957392 120.63676296 0.15234375 120.62890625 C-0.71128784 120.63700317 -1.57491943 120.6451001 -2.46472168 120.65344238 C-6.07556352 120.59707082 -8.43427404 120.45590091 -11.609375 118.65649414 C-13.84498525 114.73031602 -13.63816582 111.07095064 -13.59765625 106.625 C-13.60148315 105.70554092 -13.60531006 104.78608185 -13.60925293 103.83876038 C-13.61197149 101.89794823 -13.60461423 99.95709942 -13.58789062 98.01635742 C-13.56645541 95.04197825 -13.58770641 92.07000781 -13.61328125 89.09570312 C-13.61063844 87.20963008 -13.60551444 85.32355853 -13.59765625 83.4375 C-13.60575317 82.54683334 -13.6138501 81.65616669 -13.62219238 80.73851013 C-13.52910497 74.62749263 -13.52910497 74.62749263 -11.26269531 72.03222656 C-7.98443733 70.63725418 -4.8077075 70.78145989 -1.31640625 70.91015625 C-0.61902344 70.92369141 0.07835937 70.93722656 0.796875 70.95117188 C2.50944916 70.98636175 4.22162316 71.0401647 5.93359375 71.09765625 C5.65386719 70.45183594 5.37414062 69.80601562 5.0859375 69.140625 C2.25238233 62.48040367 -0.36409292 55.75899644 -2.87890625 48.97265625 C-3.19287354 48.13114014 -3.50684082 47.28962402 -3.83032227 46.42260742 C-4.12092529 45.63217041 -4.41152832 44.8417334 -4.7109375 44.02734375 C-5.10309448 42.96362549 -5.10309448 42.96362549 -5.50317383 41.87841797 C-6.06640625 40.09765625 -6.06640625 40.09765625 -6.06640625 38.09765625 C-9.39541872 40.31699789 -9.81663869 41.44448954 -11.06640625 45.09765625 C-13.70640625 45.09765625 -16.34640625 45.09765625 -19.06640625 45.09765625 C-16.74112148 36.47371948 -13.54696959 28.19602439 -10.34082031 19.87182617 C-9.43202055 17.51077228 -8.5301131 15.14716426 -7.62890625 12.78320312 C-7.05378706 11.28239811 -6.47828073 9.78174138 -5.90234375 8.28125 C-5.63255707 7.57407333 -5.36277039 6.86689667 -5.08480835 6.13829041 C-2.76355343 0.13060271 -2.76355343 0.13060271 0 0 Z " fill="#C0DCEC" transform="translate(287.06640625,216.90234375)"/>
<path d="M0 0 C62.7 0 125.4 0 190 0 C190 20.79 190 41.58 190 63 C210.13 63 230.26 63 251 63 C251 42.54 251 22.08 251 1 C251.33 1 251.66 1 252 1 C252.33 21.13 252.66 41.26 253 62 C283.195 62.495 283.195 62.495 314 63 C314 42.54 314 22.08 314 1 C314.33 1 314.66 1 315 1 C315.33 21.13 315.66 41.26 316 62 C346.195 62.495 346.195 62.495 377 63 C377 49.47 377 35.94 377 22 C377.66 22.66 378.32 23.32 379 24 C378.67 37.2 378.34 50.4 378 64 C253.26 64 128.52 64 0 64 C0 42.88 0 21.76 0 0 Z M1 2 C1 22.13 1 42.26 1 63 C21.13 63 41.26 63 62 63 C62 42.87 62 22.74 62 2 C41.87 2 21.74 2 1 2 Z M64 2 C64 22.13 64 42.26 64 63 C84.13 63 104.26 63 125 63 C125 42.87 125 22.74 125 2 C104.87 2 84.74 2 64 2 Z M127 2 C127 22.13 127 42.26 127 63 C147.13 63 167.26 63 188 63 C188 42.87 188 22.74 188 2 C167.87 2 147.74 2 127 2 Z " fill="#E2EDF4" transform="translate(79,68)"/>
<path d="M0 0 C2.31 0 4.62 0 7 0 C7 2.64 7 5.28 7 8 C15.91 8 24.82 8 34 8 C34 10.31 34 12.62 34 15 C30.37 15 26.74 15 23 15 C22.62875 16.258125 22.2575 17.51625 21.875 18.8125 C19.20915615 26.82266587 14.8378082 34.11542679 10 41 C10.58910156 41.51949219 11.17820312 42.03898437 11.78515625 42.57421875 C12.53667969 43.27160156 13.28820312 43.96898437 14.0625 44.6875 C14.81660156 45.37199219 15.57070313 46.05648437 16.34765625 46.76171875 C18 49 18 49 17.80859375 51.58203125 C17.54175781 52.37996094 17.27492188 53.17789063 17 54 C16.67 54.99 16.34 55.98 16 57 C12.55571735 55.55218207 10.63869038 53.72305391 8.25 50.875 C7.63640625 50.15054688 7.0228125 49.42609375 6.390625 48.6796875 C5.70226562 47.84824219 5.70226562 47.84824219 5 47 C1.7413364 48.4264578 -0.4024854 50.16704162 -2.890625 52.6953125 C-3.95410156 53.76845703 -3.95410156 53.76845703 -5.0390625 54.86328125 C-6.13347656 55.98283203 -6.13347656 55.98283203 -7.25 57.125 C-7.99507812 57.87910156 -8.74015625 58.63320312 -9.5078125 59.41015625 C-11.3431342 61.26900772 -13.1736191 63.13237005 -15 65 C-16.98 63.35 -18.96 61.7 -21 60 C-15.44964797 53.21623641 -9.23557973 47.14477032 -3 41 C-4.93425683 36.9632901 -7.29437744 33.23200097 -9.66015625 29.4375 C-10.86948024 27.23744703 -11.54059833 25.45014222 -12 23 C-6.91552975 22.21103048 -6.91552975 22.21103048 -4 23 C-1.16267597 25.93823305 2 29.76923163 2 34 C9.12193647 30.33529701 9.12193647 30.33529701 15 15 C1.14 15 -12.72 15 -27 15 C-27 12.69 -27 10.38 -27 8 C-18.09 8 -9.18 8 0 8 C0 5.36 0 2.72 0 0 Z " fill="#0580BE" transform="translate(253,186)"/>
<path d="M0 0 C1.23556641 0.01740234 1.23556641 0.01740234 2.49609375 0.03515625 C3.32238281 0.04417969 4.14867187 0.05320313 5 0.0625 C5.63808594 0.07410156 6.27617187 0.08570313 6.93359375 0.09765625 C9.05645344 5.7008635 11.17422968 11.30595562 13.28735352 16.9128418 C14.00666742 18.81929102 14.7273586 20.72522118 15.44946289 22.63061523 C16.48818168 25.37217516 17.52190524 28.11557408 18.5546875 30.859375 C18.8776329 31.70851974 19.20057831 32.55766449 19.53330994 33.43254089 C20.98328467 37.29828904 22.3170047 40.99314337 22.93359375 45.09765625 C20.29359375 45.09765625 17.65359375 45.09765625 14.93359375 45.09765625 C13.94359375 41.46765625 12.95359375 37.83765625 11.93359375 34.09765625 C5.33359375 34.09765625 -1.26640625 34.09765625 -8.06640625 34.09765625 C-8.72640625 37.06765625 -9.38640625 40.03765625 -10.06640625 43.09765625 C-10.39640625 43.75765625 -10.72640625 44.41765625 -11.06640625 45.09765625 C-13.70640625 45.09765625 -16.34640625 45.09765625 -19.06640625 45.09765625 C-16.74112148 36.47371948 -13.54696959 28.19602439 -10.34082031 19.87182617 C-9.43202055 17.51077228 -8.5301131 15.14716426 -7.62890625 12.78320312 C-7.05378706 11.28239811 -6.47828073 9.78174138 -5.90234375 8.28125 C-5.63255707 7.57407333 -5.36277039 6.86689667 -5.08480835 6.13829041 C-2.76355343 0.13060271 -2.76355343 0.13060271 0 0 Z " fill="#0882BF" transform="translate(287.06640625,216.90234375)"/>
<path d="M0 0 C3.32635882 1.52572656 4.95563002 2.93344504 7 6 C6.55527344 6.51304687 6.11054688 7.02609375 5.65234375 7.5546875 C3.58313445 10.61692159 2.66640409 13.59974564 1.5625 17.125 C0.17072124 21.48005547 -1.24310167 25.77490847 -3 30 C-5.23406131 35.39069046 -6.98165873 40.92939588 -8.75390625 46.484375 C-10 50 -10 50 -13 56 C-18.28 56 -23.56 56 -29 56 C-27.30268787 50.85331159 -25.56305752 45.72474351 -23.7734375 40.609375 C-23.3815625 39.48789062 -22.9896875 38.36640625 -22.5859375 37.2109375 C-21.7729227 34.88728874 -20.95778867 32.56438047 -20.140625 30.2421875 C-19.75132812 29.12585938 -19.36203125 28.00953125 -18.9609375 26.859375 C-18.60821777 25.85358398 -18.25549805 24.84779297 -17.89208984 23.81152344 C-16.94043814 21.06552429 -16.94043814 21.06552429 -16.60229492 18.38305664 C-15.84281291 15.37806923 -14.61685408 14.15648072 -12.40234375 12.01171875 C-11.68369141 11.30595703 -10.96503906 10.60019531 -10.22460938 9.87304688 C-9.46986328 9.15181641 -8.71511719 8.43058594 -7.9375 7.6875 C-7.17888672 6.94693359 -6.42027344 6.20636719 -5.63867188 5.44335938 C-3.76780841 3.61956166 -1.88825508 1.80575696 0 0 Z " fill="#C1DDED" transform="translate(256,232)"/>
<path d="M0 0 C6.6 0 13.2 0 20 0 C22 5 22 5 22 8 C21.34 8 20.68 8 20 8 C20.19634033 8.55872803 20.39268066 9.11745605 20.5949707 9.69311523 C21.50154902 12.27431926 22.40702954 14.85590715 23.3125 17.4375 C23.62123047 18.31599609 23.92996094 19.19449219 24.24804688 20.09960938 C26.21714129 25.71671029 28.1315346 31.34861082 30 37 C24.72 37 19.44 37 14 37 C10.86675374 29.68909207 7.95100167 22.33243719 5.1875 14.875 C4.87353271 14.03348389 4.55956543 13.19196777 4.23608398 12.32495117 C3.94548096 11.53451416 3.65487793 10.74407715 3.35546875 9.9296875 C3.09403076 9.22054199 2.83259277 8.51139648 2.56323242 7.78076172 C2 6 2 6 2 4 C1.01 4.33 0.02 4.66 -1 5 C-0.67 3.35 -0.34 1.7 0 0 Z " fill="#C1DDED" transform="translate(279,251)"/>
<path d="M0 0 C0.33 0 0.66 0 1 0 C3.57937948 7.35430221 5.53801133 14.38596602 3 22 C3.99 22.33 4.98 22.66 6 23 C2.04 23.495 2.04 23.495 -2 24 C-3.65 28.29 -5.3 32.58 -7 37 C-7.33 36.34 -7.66 35.68 -8 35 C-13.445 36.98 -13.445 36.98 -19 39 C-21.97 35.535 -21.97 35.535 -25 32 C-24.113125 30.88625 -23.22625 29.7725 -22.3125 28.625 C-17.36538875 22.0327409 -14.13195754 14.58263405 -11 7 C-7.37 7 -3.74 7 0 7 C0 4.69 0 2.38 0 0 Z " fill="#BCDAEB" transform="translate(287,194)"/>
<path d="M0 0 C3.6815625 -0.0309375 3.6815625 -0.0309375 7.4375 -0.0625 C8.21150146 -0.071604 8.98550293 -0.08070801 9.78295898 -0.09008789 C11.52221717 -0.09724913 13.26145304 -0.05024702 15 0 C16 1 16 1 16.09765625 4.81640625 C16.09098089 6.39846682 16.07901875 7.98051159 16.0625 9.5625 C16.05798828 10.36880859 16.05347656 11.17511719 16.04882812 12.00585938 C16.03700518 14.00393756 16.01906914 16.00197783 16 18 C16.556875 18.061875 17.11375 18.12375 17.6875 18.1875 C20 19 20 19 25 24 C16.75 24 8.5 24 0 24 C0 16.08 0 8.16 0 0 Z " fill="#BFDCEC" transform="translate(260,170)"/>
<path d="M0 0 C0.78375 0.639375 1.5675 1.27875 2.375 1.9375 C4.79539281 3.98142313 4.79539281 3.98142313 7 5 C9.03633828 10.90538102 9.18435887 14.17504302 7 20 C6.38125 20.103125 5.7625 20.20625 5.125 20.3125 C2.63473516 20.87525373 2.63473516 20.87525373 1 24 C-1.09375 24.3984375 -1.09375 24.3984375 -3.5 24.375 C-4.2940625 24.38273437 -5.088125 24.39046875 -5.90625 24.3984375 C-6.5971875 24.26695313 -7.288125 24.13546875 -8 24 C-8.66 23.01 -9.32 22.02 -10 21 C-10.99 20.67 -11.98 20.34 -13 20 C-15.52253757 13.89280377 -14.88020327 10.22817333 -13 4 C-11.68 4 -10.36 4 -9 4 C-8.67 3.01 -8.34 2.02 -8 1 C-7.05125 1.020625 -6.1025 1.04125 -5.125 1.0625 C-2.09333717 1.22551826 -2.09333717 1.22551826 0 0 Z " fill="#F1F8F8" transform="translate(473,43)"/>
<path d="M0 0 C2.64590014 -0.02684679 5.29153096 -0.04676357 7.9375 -0.0625 C8.69224609 -0.07087891 9.44699219 -0.07925781 10.22460938 -0.08789062 C12.14994313 -0.09652441 14.07535581 -0.05224333 16 0 C17 1 17 1 17.11352539 2.94946289 C17.10828857 3.7821167 17.10305176 4.61477051 17.09765625 5.47265625 C17.09443359 6.37177734 17.09121094 7.27089844 17.08789062 8.19726562 C17.07951172 9.14279297 17.07113281 10.08832031 17.0625 11.0625 C17.05798828 12.01189453 17.05347656 12.96128906 17.04882812 13.93945312 C17.0370011 16.29303065 17.02052025 18.64648477 17 21 C15.68 21 14.36 21 13 21 C11.79371992 23.33214148 10.8345262 25.49642139 10 28 C11.32 28.99 12.64 29.98 14 31 C11.24574641 32.02009392 10.26794241 32.11387552 7.5 30.9375 C5.06002891 29.69509393 5.06002891 29.69509393 2.9375 30.875 C1.9784375 31.431875 1.9784375 31.431875 1 32 C-0.32 32 -1.64 32 -3 32 C-3 31.34 -3 30.68 -3 30 C-0.36 29.34 2.28 28.68 5 28 C4.34 27.01 3.68 26.02 3 25 C3 23.68 3 22.36 3 21 C2.01 21 1.02 21 0 21 C0 20.34 0 19.68 0 19 C2.64 19 5.28 19 8 19 C8.33 17.35 8.66 15.7 9 14 C8.071875 13.360625 7.14375 12.72125 6.1875 12.0625 C2.22388903 8.82039741 1.20061724 4.83406415 0 0 Z " fill="#9ACAE3" transform="translate(293,288)"/>
<path d="M0 0 C13.86 0 27.72 0 42 0 C41.12636677 4.36816613 40.22539521 6.83174894 38.125 10.625 C37.35542969 12.03652344 37.35542969 12.03652344 36.5703125 13.4765625 C35.183056 15.70583539 34.0631746 17.39050777 32 19 C31.01 19 30.02 19 29 19 C27.39453125 17.1015625 27.39453125 17.1015625 25.8125 14.625 C25.28269531 13.81289062 24.75289062 13.00078125 24.20703125 12.1640625 C23 10 23 10 23 8 C21.68 8 20.36 8 19 8 C19 6.02 19 4.04 19 2 C12.73 1.67 6.46 1.34 0 1 C0 0.67 0 0.34 0 0 Z " fill="#B6D7EA" transform="translate(226,201)"/>
<path d="M0 0 C0.33 0 0.66 0 1 0 C1.08076963 2.45898655 1.14037143 4.91533742 1.1875 7.375 C1.21263672 8.07367188 1.23777344 8.77234375 1.26367188 9.4921875 C1.29296875 11.5234375 1.29296875 11.5234375 1 15 C-2.88945204 17.59296803 -6.13602236 17.2806469 -10.64648438 17.25878906 C-11.5296785 17.2622937 -12.41287262 17.26579834 -13.3228302 17.26940918 C-16.24654974 17.2782223 -19.17002793 17.2723788 -22.09375 17.265625 C-24.12251838 17.26697177 -26.15128644 17.2689124 -28.18005371 17.27142334 C-32.43370636 17.27437403 -36.68727507 17.27007868 -40.94091797 17.26074219 C-46.39876741 17.24934772 -51.85642017 17.25590748 -57.31426239 17.26788712 C-61.5040638 17.27510716 -65.69381842 17.27281711 -69.88362122 17.26763153 C-71.89630659 17.26629544 -73.90899619 17.26794134 -75.92167664 17.27259064 C-78.73240443 17.2776582 -81.54281175 17.26994233 -84.35351562 17.25878906 C-85.18893387 17.26283752 -86.02435211 17.26688599 -86.88508606 17.27105713 C-90.77580035 17.24239229 -92.6878595 17.20809367 -96 15 C-95.67 13.68 -95.34 12.36 -95 11 C-94.01 12.485 -94.01 12.485 -93 14 C-90.06942931 14.28611093 -87.35112474 14.37805361 -84.41943359 14.34057617 C-83.08763313 14.34123329 -83.08763313 14.34123329 -81.72892761 14.34190369 C-78.78520957 14.33980852 -75.84205642 14.3164433 -72.8984375 14.29296875 C-70.86105663 14.28737538 -68.82367174 14.28310406 -66.7862854 14.28010559 C-61.41692008 14.26863643 -56.04779719 14.23915143 -50.67852783 14.20599365 C-45.20238525 14.17533737 -39.72620361 14.16160977 -34.25 14.14648438 C-23.49989333 14.11428372 -12.7499668 14.06306238 -2 14 C-0.64908472 11.29816945 -0.66141942 8.88191794 -0.4375 5.875 C-0.31181641 4.23144531 -0.31181641 4.23144531 -0.18359375 2.5546875 C-0.12300781 1.71164062 -0.06242187 0.86859375 0 0 Z " fill="#AACCDD" transform="translate(120,485)"/>
<path d="M0 0 C1.48831242 0.00667405 2.97660807 0.01863442 4.46484375 0.03515625 C5.22345703 0.03966797 5.98207031 0.04417969 6.76367188 0.04882812 C8.64326246 0.06064945 10.52281274 0.07858547 12.40234375 0.09765625 C10.49313428 9.20311681 5.38381559 13.42002465 -1.59765625 19.09765625 C-2.25765625 18.76765625 -2.91765625 18.43765625 -3.59765625 18.09765625 C-3.79149804 15.2854592 -3.97802228 12.47311429 -4.16015625 9.66015625 C-4.21623047 8.85771484 -4.27230469 8.05527344 -4.33007812 7.22851562 C-4.45928575 5.18703514 -4.53278355 3.14219256 -4.59765625 1.09765625 C-3.59765625 0.09765625 -3.59765625 0.09765625 0 0 Z " fill="#9BCAE4" transform="translate(230.59765625,287.90234375)"/>
<path d="M0 0 C0.78375 0.639375 1.5675 1.27875 2.375 1.9375 C4.79539281 3.98142313 4.79539281 3.98142313 7 5 C9.03633828 10.90538102 9.18435887 14.17504302 7 20 C6.38125 20.103125 5.7625 20.20625 5.125 20.3125 C2.63473516 20.87525373 2.63473516 20.87525373 1 24 C-1.09375 24.3984375 -1.09375 24.3984375 -3.5 24.375 C-4.2940625 24.38273437 -5.088125 24.39046875 -5.90625 24.3984375 C-6.5971875 24.26695313 -7.288125 24.13546875 -8 24 C-8.66 23.01 -9.32 22.02 -10 21 C-10.99 20.67 -11.98 20.34 -13 20 C-15.52253757 13.89280377 -14.88020327 10.22817333 -13 4 C-11.68 4 -10.36 4 -9 4 C-8.67 3.01 -8.34 2.02 -8 1 C-7.05125 1.020625 -6.1025 1.04125 -5.125 1.0625 C-2.09333717 1.22551826 -2.09333717 1.22551826 0 0 Z M-11 6 C-12.47315496 9.64781227 -13.23742244 12.00714251 -12.3125 15.875 C-11.11795489 18.31677193 -11.11795489 18.31677193 -8 19 C-7.67 19.66 -7.34 20.32 -7 21 C-2.20794864 21.29667105 -2.20794864 21.29667105 2.3125 19.9375 C4.76348528 17.12340579 5.37051317 14.65102359 6 11 C5.25783601 8.13569881 5.25783601 8.13569881 4 6 C3.01 6 2.02 6 1 6 C0.67 5.01 0.34 4.02 0 3 C-3.58907149 3 -7.61323549 4.8710785 -11 6 Z " fill="#1687C3" transform="translate(473,43)"/>
<path d="M0 0 C0.66 0 1.32 0 2 0 C2 0.99 2 1.98 2 3 C3.98 3 5.96 3 8 3 C7.34 5.97 6.68 8.94 6 12 C3.69 11.67 1.38 11.34 -1 11 C-1 12.65 -1 14.3 -1 16 C-1.99 16.33 -2.98 16.66 -4 17 C-3.67 15.02 -3.34 13.04 -3 11 C-4.98 11.33 -6.96 11.66 -9 12 C-8.34 9.03 -7.68 6.06 -7 3 C-4.69 3 -2.38 3 0 3 C0 2.01 0 1.02 0 0 Z " fill="#1785C0" transform="translate(240,304)"/>
<path d="M0 0 C0.66 0 1.32 0 2 0 C4 6 6 12 8 18 C3.38 18 -1.24 18 -6 18 C-4.02 12.06 -2.04 6.12 0 0 Z " fill="#B7D8EA" transform="translate(288,226)"/>
<path d="M0 0 C0.99 0 1.98 0 3 0 C3 0.66 3 1.32 3 2 C5.97 2.495 5.97 2.495 9 3 C9 3.66 9 4.32 9 5 C7.68 5 6.36 5 5 5 C3.79371992 7.33214148 2.8345262 9.49642139 2 12 C3.32 12.99 4.64 13.98 6 15 C3.24574641 16.02009392 2.26794241 16.11387552 -0.5 14.9375 C-2.93997109 13.69509393 -2.93997109 13.69509393 -5.0625 14.875 C-6.0215625 15.431875 -6.0215625 15.431875 -7 16 C-8.32 16 -9.64 16 -11 16 C-11 15.34 -11 14.68 -11 14 C-8.36 13.34 -5.72 12.68 -3 12 C-3.66 11.01 -4.32 10.02 -5 9 C-5 7.68 -5 6.36 -5 5 C-5.99 5 -6.98 5 -8 5 C-8 4.34 -8 3.68 -8 3 C-5.36 3 -2.72 3 0 3 C0 2.01 0 1.02 0 0 Z " fill="#1486C1" transform="translate(301,304)"/>
<path d="M0 0 C0.66 0 1.32 0 2 0 C2 0.99 2 1.98 2 3 C3.98 3 5.96 3 8 3 C7.34 5.97 6.68 8.94 6 12 C5.34 12 4.68 12 4 12 C4.33 9.69 4.66 7.38 5 5 C1.37 5 -2.26 5 -6 5 C-6 6.32 -6 7.64 -6 9 C-5.01 9.33 -4.02 9.66 -3 10 C-4.32 10 -5.64 10 -7 10 C-7 10.66 -7 11.32 -7 12 C-7.66 12 -8.32 12 -9 12 C-8.34 9.03 -7.68 6.06 -7 3 C-4.69 3 -2.38 3 0 3 C0 2.01 0 1.02 0 0 Z " fill="#0981BF" transform="translate(240,304)"/>
<path d="M0 0 C0.66 0 1.32 0 2 0 C4 6 6 12 8 18 C6.1875 17.9375 6.1875 17.9375 4 17 C0.86575974 11.54410028 0.36237115 6.21029173 0 0 Z " fill="#D9E9F3" transform="translate(288,226)"/>
<path d="M0 0 C0.763125 0.0825 1.52625 0.165 2.3125 0.25 C1.09315514 4.28321763 -0.24704927 7.79269479 -2.6875 11.25 C-3.3475 11.25 -4.0075 11.25 -4.6875 11.25 C-6.01717033 4.96428571 -6.01717033 4.96428571 -4.5625 1.8125 C-2.6875 0.25 -2.6875 0.25 0 0 Z " fill="#E8F0F6" transform="translate(265.6875,201.75)"/>
<path d="M0 0 C3.63 0.33 7.26 0.66 11 1 C10 3 9 5 8 7 C6.35 6.67 4.7 6.34 3 6 C3 4.68 3 3.36 3 2 C2.01 2 1.02 2 0 2 C0 1.34 0 0.68 0 0 Z " fill="#57A5CF" transform="translate(293,307)"/>
<path d="M0 0 C0.99 0 1.98 0 3 0 C4.88178944 5.9589999 5.19671115 9.14210361 3 15 C1.68 14.67 0.36 14.34 -1 14 C-0.84402344 13.43410156 -0.68804687 12.86820313 -0.52734375 12.28515625 C-0.33269531 11.55167969 -0.13804687 10.81820312 0.0625 10.0625 C0.25972656 9.33160156 0.45695312 8.60070312 0.66015625 7.84765625 C0.77230469 7.23792969 0.88445312 6.62820312 1 6 C0.67 5.67 0.34 5.34 0 5 C-0.04063832 3.33382885 -0.042721 1.66611905 0 0 Z " fill="#218FC8" transform="translate(477,48)"/>
<path d="M0 0 C4.29 0 8.58 0 13 0 C9.72312688 3.27687312 9.3169584 3.3633546 5 3.5625 C1.31096349 3.74365804 0.18809914 3.87460058 -3 6 C-2 4 -1 2 0 0 Z " fill="#B3E2ED" transform="translate(28,403)"/>
<path d="M0 0 C3.36720387 1.39332574 4.9859524 2.9789286 7 6 C6.01 6.66 5.02 7.32 4 8 C4 7.34 4 6.68 4 6 C2.02 5.34 0.04 4.68 -2 4 C-1.34 2.68 -0.68 1.36 0 0 Z " fill="#D4E6F1" transform="translate(256,232)"/>
<path d="M0 0 C0.99 0 1.98 0 3 0 C4.25664978 2.90600261 5 4.79604584 5 8 C4.34 8 3.68 8 3 8 C2.67 8.66 2.34 9.32 2 10 C1.34 6.7 0.68 3.4 0 0 Z " fill="#D6E7F2" transform="translate(296,251)"/>
<path d="M0 0 C0.99 0 1.98 0 3 0 C3 0.66 3 1.32 3 2 C1.46875 3.2890625 1.46875 3.2890625 -0.5 4.625 C-1.1496875 5.07101563 -1.799375 5.51703125 -2.46875 5.9765625 C-3.22671875 6.48316406 -3.22671875 6.48316406 -4 7 C-5.5 5.625 -5.5 5.625 -7 4 C-7 3.34 -7 2.68 -7 2 C-6.401875 2.226875 -5.80375 2.45375 -5.1875 2.6875 C-4.465625 2.790625 -3.74375 2.89375 -3 3 C-1.41666667 1.58333333 -1.41666667 1.58333333 0 0 Z " fill="#1788C4" transform="translate(472,52)"/>
<path d="M0 0 C0.33 0 0.66 0 1 0 C0.50769231 6.52307692 0.50769231 6.52307692 -2.0625 8.9375 C-2.701875 9.288125 -3.34125 9.63875 -4 10 C-3.52371389 5.8086822 -2.89509268 3.13635041 0 0 Z " fill="#D6E8F2" transform="translate(275,206)"/>
<path d="M0 0 C1.32 0 2.64 0 4 0 C4 1.32 4 2.64 4 4 C2.35 4 0.7 4 -1 4 C-0.67 2.68 -0.34 1.36 0 0 Z " fill="#A8D0E3" transform="translate(241,309)"/>
<path d="M0 0 C1.65 0 3.3 0 5 0 C4.67 1.32 4.34 2.64 4 4 C2.68 4 1.36 4 0 4 C0 2.68 0 1.36 0 0 Z " fill="#A7D1E3" transform="translate(234,309)"/>
<path d="M0 0 C0.99 0 1.98 0 3 0 C3.33 1.98 3.66 3.96 4 6 C3.67 5.34 3.34 4.68 3 4 C1.02 4 -0.96 4 -3 4 C-2.01 3.67 -1.02 3.34 0 3 C0 2.01 0 1.02 0 0 Z " fill="#0C83C1" transform="translate(301,304)"/>
<path d="M0 0 C0.33 0.66 0.66 1.32 1 2 C2.65 1.67 4.3 1.34 6 1 C5.67 1.99 5.34 2.98 5 4 C3.35 4.33 1.7 4.66 0 5 C0 3.35 0 1.7 0 0 Z " fill="#1D8DC5" transform="translate(465,62)"/>
</svg>
